# xmcd CD database file
#
# Track frame offsets:
#	150
#	13703
#	25413
#	39285
#	51942
#	64181
#	72166
#	82044
#	92772
#	107342
#	125473
#	140040
#	153371
#	171760
#	191244
#	203066
#	222000
#
# Disc length: 3144 seconds
#
# Revision: 0
# Processed by: cddbd v1.5.1PL2 Copyright (c) Steve Scherf et al.
# Submitted via: CDex 1.51
#
DISCID=ed0c4611
DTITLE=Bruno e Marrone - Acustico
DYEAR=2003
DGENRE=Country
TTITLE0=Vida vazia
TTITLE1=Acorrentado em voce
TTITLE2=Machuca demais
TTITLE3=Agarrada em mim
TTITLE4=Fruto especial-acustico
TTITLE5=Meu segredo
TTITLE6=Feriado nacional
TTITLE7=Goiais e mais
TTITLE8=Preciso amar de novo
TTITLE9=Hello
TTITLE10=Favo de mel
TTITLE11=To machucado
TTITLE12=Fruto especial
TTITLE13=Faz de conta
TTITLE14=Esqueci
TTITLE15=Vem me buscar
TTITLE16=Apenas um sorriso
EXTD=YEAR: 2003
EXTT0=
EXTT1=
EXTT2=
EXTT3=
EXTT4=
EXTT5=
EXTT6=
EXTT7=
EXTT8=
EXTT9=
EXTT10=
EXTT11=
EXTT12=
EXTT13=
EXTT14=
EXTT15=
EXTT16=
PLAYORDER=
